<?xml version="1.0" standalone="no"?><!DOCTYPE svg PUBLIC "-//W3C//DTD SVG 1.1//EN" "http://www.w3.org/Graphics/SVG/1.1/DTD/svg11.dtd"><svg t="1614773088783" class="icon" viewBox="0 0 1024 1024" version="1.1" xmlns="http://www.w3.org/2000/svg" p-id="25976" xmlns:xlink="http://www.w3.org/1999/xlink" width="200" height="200"><defs><style type="text/css"></style></defs><path d="M511.43 512.45m-448.09 0a448.09 448.09 0 1 0 896.18 0 448.09 448.09 0 1 0-896.18 0Z" fill="#658EEA" p-id="25977"></path><path d="M736.14 174.33m-15.9 0a15.9 15.9 0 1 0 31.8 0 15.9 15.9 0 1 0-31.8 0Z" fill="#FFFFFF" p-id="25978"></path><path d="M416.08 148.55m-15.9 0a15.9 15.9 0 1 0 31.8 0 15.9 15.9 0 1 0-31.8 0Z" fill="#FFFFFF" p-id="25979"></path><path d="M759.45 824.45m-23.31 0a23.31 23.31 0 1 0 46.62 0 23.31 23.31 0 1 0-46.62 0Z" fill="#F533FF" p-id="25980"></path><path d="M160.03 399.55m-23.31 0a23.31 23.31 0 1 0 46.62 0 23.31 23.31 0 1 0-46.62 0Z" fill="#F44500" p-id="25981"></path><path d="M494.12 129.89m-23.31 0a23.31 23.31 0 1 0 46.62 0 23.31 23.31 0 1 0-46.62 0Z" fill="#71FBFF" p-id="25982"></path><path d="M208.61 651.2m-11.24 0a11.24 11.24 0 1 0 22.48 0 11.24 11.24 0 1 0-22.48 0Z" fill="#FFFFFF" p-id="25983"></path><path d="M179.28 286.98l-3.61-2.5-4.39-0.17 2.5-3.61 0.16-4.39 3.61 2.51 4.39 0.16-2.5 3.61zM129.94 511.8l-3.61-2.51-4.39-0.16 2.51-3.61 0.16-4.39 3.61 2.51 4.39 0.16-2.51 3.61zM871.88 491.44l-10.44-7.24-12.69-0.47 7.24-10.43 0.47-12.7 10.43 7.24 12.7 0.47-7.24 10.44zM205.08 463.63l-10.44-7.24-12.7-0.47 7.25-10.44 0.46-12.69 10.44 7.24 12.7 0.47-7.25 10.43z" fill="#FFFFFF" p-id="25984"></path><path d="M658.58 866.35h-223.4c-6.37 0-11.62-5.01-11.91-11.38l-18.92-416.88c-0.31-6.79 5.11-12.46 11.91-12.46H677.5c6.8 0 12.22 5.67 11.91 12.46l-18.92 416.88c-0.29 6.36-5.54 11.38-11.91 11.38z" fill="#FFF5C0" p-id="25985"></path><path d="M624.7 831.72H401.3c-6.37 0-11.62-5.01-11.91-11.38l-18.92-416.88c-0.31-6.79 5.11-12.46 11.91-12.46h261.24c6.8 0 12.22 5.67 11.91 12.46l-18.92 416.88c-0.29 6.37-5.54 11.38-11.91 11.38z" fill="#FFFFFF" p-id="25986"></path><path d="M624.7 839.22H401.3c-10.41 0-18.93-8.14-19.4-18.54L362.98 403.8c-0.24-5.35 1.66-10.43 5.36-14.3s8.69-6 14.04-6h261.24c5.35 0 10.34 2.13 14.04 6 3.7 3.87 5.6 8.95 5.36 14.3L644.1 820.68a19.382 19.382 0 0 1-19.4 18.54zM382.38 398.5c-1.64 0-2.71 0.86-3.2 1.37-0.49 0.51-1.29 1.61-1.22 3.25L396.88 820a4.415 4.415 0 0 0 4.42 4.22h223.4c2.37 0 4.31-1.85 4.42-4.22l18.92-416.88c0.07-1.64-0.73-2.74-1.22-3.25s-1.55-1.37-3.2-1.37H382.38z" fill="#333333" p-id="25987"></path><path d="M361.67 346.33h304l8.45 42.26c0.8 4.01-2.26 7.74-6.35 7.74H359.56c-4.08 0-7.15-3.74-6.35-7.74l8.46-42.26z" fill="#FFFFFF" p-id="25988"></path><path d="M667.77 403.83H359.56c-4.2 0-8.14-1.86-10.81-5.11a13.958 13.958 0 0 1-2.9-11.6l9.66-48.29h316.3l9.66 48.29c0.82 4.12-0.23 8.35-2.9 11.6s-6.6 5.11-10.8 5.11z m-306.95-15h305.7l-7-35h-291.7l-7 35z" fill="#333333" p-id="25989"></path><path d="M362.95 336.75a150.65 10.58 0 1 0 301.3 0 150.65 10.58 0 1 0-301.3 0Z" fill="#FFFFFF" p-id="25990"></path><path d="M513.6 354.83c-40.41 0-78.43-1.11-107.05-3.12-14.07-0.99-25.17-2.15-32.99-3.45-7.64-1.27-18.11-3.01-18.11-11.52s10.47-10.25 18.11-11.52c7.82-1.3 18.92-2.46 32.99-3.45 28.62-2.01 66.64-3.12 107.05-3.12s78.43 1.11 107.05 3.12c14.07 0.99 25.17 2.15 32.99 3.45 7.64 1.27 18.11 3.01 18.11 11.52s-10.47 10.25-18.11 11.52c-7.82 1.3-18.92 2.46-32.99 3.45-28.62 2.02-66.64 3.12-107.05 3.12z m-106.35-18.08c24.7 1.75 60.47 3.08 106.35 3.08s81.65-1.33 106.35-3.08c-24.7-1.75-60.47-3.08-106.35-3.08s-81.65 1.33-106.35 3.08z" fill="#333333" p-id="25991"></path><path d="M570.67 337.3V190.47a2.69 2.69 0 0 1 2.69-2.69h31.53c3.56 0 6.44-2.89 6.44-6.44V170.9c0-3.56-2.89-6.44-6.44-6.44h-50.23c-4.05 0-7.33 3.28-7.33 7.33V337.3" fill="#FFFFFF" p-id="25992"></path><path d="M578.17 337.3h-15V190.47c0-5.62 4.57-10.19 10.19-10.19h30.47v-8.33h-49V337.3h-15V171.77c0-8.18 6.65-14.83 14.83-14.83h50.23c7.69 0 13.94 6.26 13.94 13.94v10.44c0 7.69-6.26 13.94-13.94 13.94h-26.72V337.3z" fill="#333333" p-id="25993"></path><path d="M550.42 496.15c-9.06 4.93-20.12 9.73-32.34 13.81-13.09 4.37-25.61 7.3-36.29 8.72-22.38 24.71-54.71 40.24-90.68 40.24-1.94 0-3.87-0.05-5.79-0.14l11.56 260.39a5.3 5.3 0 0 0 5.29 5.06h222.56a5.3 5.3 0 0 0 5.29-5.06l16.09-362.25c-18.99 22.41-54.52 37.89-95.69 39.23z" fill="#F44500" p-id="25994"></path><path d="M410.78 464.95a4 8.05 0 1 0 8 0 4 8.05 0 1 0-8 0Z" fill="#F44500" p-id="25995"></path><path d="M437.53 437.78a10.56 6.27 0 1 0 21.12 0 10.56 6.27 0 1 0-21.12 0Z" fill="#F44500" p-id="25996"></path><path d="M470.81 487.18a4.43 11.16 0 1 0 8.86 0 4.43 11.16 0 1 0-8.86 0Z" fill="#F44500" p-id="25997"></path><path d="M441 488.78a3.54 9.56 0 1 0 7.08 0 3.54 9.56 0 1 0-7.08 0Z" fill="#F44500" p-id="25998"></path><path d="M410.78 809.06a13.22 13.94 0 1 0 26.44 0 13.22 13.94 0 1 0-26.44 0Z" fill="#333333" p-id="25999"></path><path d="M436.11 802.39a13.22 13.94 0 1 0 26.44 0 13.22 13.94 0 1 0-26.44 0Z" fill="#333333" p-id="26000"></path><path d="M453.22 782.39a13.22 13.94 0 1 0 26.44 0 13.22 13.94 0 1 0-26.44 0Z" fill="#333333" p-id="26001"></path><path d="M462.56 809.06a13.22 13.94 0 1 0 26.44 0 13.22 13.94 0 1 0-26.44 0Z" fill="#333333" p-id="26002"></path><path d="M560.67 810.28a13.22 13.94 0 1 0 26.44 0 13.22 13.94 0 1 0-26.44 0Z" fill="#333333" p-id="26003"></path><path d="M583.35 795.11a13.22 13.94 0 1 0 26.44 0 13.22 13.94 0 1 0-26.44 0Z" fill="#333333" p-id="26004"></path><path d="M604.67 810.28a13.22 13.94 0 1 0 26.44 0 13.22 13.94 0 1 0-26.44 0Z" fill="#333333" p-id="26005"></path><path d="M489 810.28a13.22 13.94 0 1 0 26.44 0 13.22 13.94 0 1 0-26.44 0Z" fill="#333333" p-id="26006"></path><path d="M511.44 795.11a13.22 13.94 0 1 0 26.44 0 13.22 13.94 0 1 0-26.44 0Z" fill="#333333" p-id="26007"></path><path d="M533.66 810.28a13.22 13.94 0 1 0 26.44 0 13.22 13.94 0 1 0-26.44 0Z" fill="#333333" p-id="26008"></path><path d="M457 378.83h-77.33c-4.14 0-7.5-3.36-7.5-7.5s3.36-7.5 7.5-7.5H457c4.14 0 7.5 3.36 7.5 7.5s-3.36 7.5-7.5 7.5zM504.33 378.83h-11.67c-4.14 0-7.5-3.36-7.5-7.5s3.36-7.5 7.5-7.5h11.67c4.14 0 7.5 3.36 7.5 7.5s-3.35 7.5-7.5 7.5z" fill="#333333" p-id="26009"></path><path d="M625.14 353.85h34.35l7.01 34.98h-70.28z" fill="#71FBFF" p-id="26010"></path></svg>